<svg width="74" height="75" viewBox="0 0 74 75" fill="none" xmlns="http://www.w3.org/2000/svg">
<path d="M4.42686 0.209043C3.86334 0.128793 3.29818 0.741653 3.16363 1.57758L0.977395 15.2021C0.843832 16.0384 1.19137 16.781 1.75489 16.8613C2.31943 16.9417 2.88458 16.3288 3.01913 15.4929L4.96202 3.38208L13.127 4.54465C13.6905 4.62491 14.2567 4.01223 14.3902 3.17612C14.5248 2.34003 14.1762 1.5972 13.6127 1.51695L4.42686 0.209043ZM16.8636 25.6088L16.0322 26.6942C16.0476 26.7197 16.0642 26.7443 16.081 26.7678L16.8636 25.6088ZM45.5227 40.3276L44.7355 41.4802L44.7355 41.4803L45.5227 40.3276ZM46.0673 54.1375L45.2896 55.3035L45.2897 55.3037L46.0673 54.1375ZM72.1129 74.0566C72.6496 74.2629 73.2617 73.7702 73.4799 72.956C73.6981 72.1419 73.4398 71.3145 72.903 71.1082L72.1129 74.0566ZM3.29112 2.69058C5.03414 6.40931 10.0753 16.7898 16.0322 26.6942L17.694 24.5232C11.7993 14.7234 6.80199 4.43295 5.07791 0.755246L3.29112 2.69058ZM46.31 39.175C45.2227 37.6195 43.9444 36.7133 42.7291 36.6504C42.1141 36.6187 41.4703 36.8039 40.8911 37.3152C40.2949 37.8417 39.8522 38.6406 39.6081 39.6042C39.1453 41.4311 39.417 43.7028 40.2795 46.1926C41.1638 48.7451 42.7597 51.7962 45.2896 55.3035L46.845 52.9715C44.3993 49.5807 42.9475 46.7524 42.182 44.5426C41.3947 42.27 41.4144 40.8959 41.5675 40.2914C41.6314 40.039 41.7136 39.9258 41.793 39.8556C41.8895 39.7705 42.072 39.6749 42.3678 39.6901C42.9741 39.7216 43.8554 40.2211 44.7355 41.4802L46.31 39.175ZM45.2897 55.3037C52.4074 65.171 62.6465 70.4179 72.1129 74.0566L72.903 71.1082C63.4873 67.4889 53.6271 62.3734 46.845 52.9714L45.2897 55.3037ZM16.081 26.7678C22.8389 36.2944 31.0314 41.3203 37.1101 43.3341C40.1285 44.3341 42.7172 44.6223 44.3916 44.2688C44.8169 44.1791 45.2269 44.0396 45.5898 43.8239C45.9367 43.6178 46.3563 43.2734 46.6564 42.6774C46.9995 41.9955 47.0591 41.2427 46.9366 40.6034C46.827 40.032 46.5791 39.56 46.31 39.175L44.7355 41.4803C44.9033 41.7202 44.9173 41.826 44.9084 41.7798C44.8865 41.6653 44.8855 41.3847 45.0205 41.1166C45.1123 40.9343 45.1762 40.9451 45.0334 41.03C44.9066 41.1054 44.6929 41.1925 44.3745 41.2597C43.0738 41.5343 40.7642 41.3329 37.8374 40.3633C32.0263 38.4381 24.1411 33.6043 17.6462 24.4498L16.081 26.7678Z" fill="#002E8C"/>
</svg>
