<svg width="86" height="58" viewBox="0 0 86 58" fill="none" xmlns="http://www.w3.org/2000/svg">
<path d="M7.55809 19.9038C8.73707 19.8006 9.71032 19.424 10.4779 18.7742C11.2674 18.0982 11.7635 17.5329 11.9662 17.0782C12.1951 16.6455 12.2674 15.9473 12.1832 14.9838C12.1137 14.1888 11.879 13.4447 11.479 12.7516C11.1031 12.0563 10.6912 11.6433 10.2434 11.5126C9.99223 11.4132 9.69192 11.306 9.34244 11.191C9.70636 10.9164 10.0671 10.6056 10.4247 10.2587C11.3436 8.84319 11.4688 7.36365 10.8006 5.8201C9.74163 3.41265 7.6231 2.33597 4.44498 2.59008C3.50661 2.67227 2.89622 2.76215 2.61381 2.85971C2.3335 2.98136 2.00672 3.26486 1.63348 3.71021C1.30414 4.10317 1.10924 4.50862 1.04879 4.92657C0.986224 5.32044 0.952681 6.1851 0.948153 7.52056C0.951753 8.39411 0.996706 9.32471 1.08301 10.3124C1.18616 11.4928 1.34585 12.7653 1.56208 14.13C1.92537 16.6226 2.25829 18.0742 2.56085 18.4846C3.21619 19.3253 4.43366 19.8013 6.21325 19.9124C6.70078 19.9425 7.14906 19.9397 7.55809 19.9038ZM4.12458 10.9926C3.90803 11.0116 3.69043 11.0185 3.47178 11.0134C3.37705 9.92939 3.29541 8.85635 3.22685 7.7943C3.16039 6.75635 3.27138 5.94558 3.55982 5.36202C3.87863 4.84862 4.39894 4.5603 5.12076 4.49707C5.38543 4.47389 5.66529 4.48579 5.96033 4.53277C6.67283 4.64027 7.30908 4.98506 7.86909 5.56713C8.45105 6.123 8.76939 6.7141 8.82413 7.34043C8.88216 8.28203 8.36214 9.12862 7.26406 9.8802C6.32599 10.5207 5.27949 10.8915 4.12458 10.9926ZM6.98562 17.5145C6.09538 17.5924 5.43311 17.5048 4.99881 17.2516C4.71731 17.082 4.51685 16.869 4.39745 16.6124C4.27806 16.3559 4.19099 15.9144 4.13626 15.2881C4.05837 14.3968 4.13237 13.8563 4.35824 13.6666C4.56215 13.5031 5.28653 13.3304 6.53138 13.1485L6.8562 13.1201C7.67426 13.0484 8.33969 13.1722 8.85248 13.4914C9.41549 13.8304 9.73068 14.3854 9.79805 15.1563L9.80436 15.2285C9.85067 15.7585 9.83412 16.1241 9.75472 16.3252C9.67532 16.5264 9.43847 16.7292 9.04417 16.9336C8.53799 17.245 7.85181 17.4386 6.98562 17.5145ZM18.309 19.9452C19.0549 19.8799 19.7687 19.5868 20.4505 19.0658C21.4701 18.2483 22.1846 17.1298 22.5939 15.7103C22.8195 14.9624 22.867 13.8416 22.7365 12.3481C22.7029 11.9626 22.655 11.5542 22.5931 11.1226C22.3357 9.00909 21.9835 7.75342 21.5366 7.35564C21.166 6.99971 20.8364 6.8344 20.5477 6.85969C20.3552 6.87655 20.1701 6.97772 19.9923 7.16321C19.8188 7.39687 19.8734 8.71502 20.156 11.1177C20.237 11.8009 20.3 12.3857 20.3452 12.8723L20.3795 13.2652C20.4145 13.6956 20.4315 14.0276 20.4307 14.2613C20.431 14.8196 20.3167 15.3151 20.0879 15.7478C19.7357 16.4341 19.3316 16.9428 18.8756 17.274C18.5797 17.4941 18.2994 17.6158 18.0347 17.639C16.952 17.7338 16.1397 15.7902 15.5977 11.8082C15.4801 11.0175 15.3752 10.3713 15.2829 9.86961C15.1665 9.37005 15.0355 8.98101 14.8899 8.70247C14.7684 8.42183 14.6313 8.23965 14.4785 8.15593C14.3038 8.09842 14.1113 8.11528 13.901 8.20652C13.6228 8.35225 13.4478 8.70742 13.3759 9.27202C13.3302 9.8586 13.3694 10.8625 13.4936 12.2838C13.702 14.6687 14.1016 16.4664 14.6922 17.6769C15.307 18.8853 16.1584 19.6117 17.2466 19.8562C17.618 19.9451 17.9721 19.9747 18.309 19.9452ZM27.0343 17.6153C27.5877 17.5668 27.8982 17.2362 27.9659 16.6234C27.9867 16.306 27.9644 15.774 27.8992 15.0272C27.8423 14.3768 27.7456 13.5478 27.6091 12.5402C27.3243 10.1135 27.0781 8.54513 26.8706 7.83509C26.7648 7.45598 26.5293 7.25815 26.1642 7.24158L26.0559 7.25107C25.7431 7.27846 25.4681 7.46034 25.2307 7.79668C25.0175 8.13092 25.0151 9.49047 25.2235 11.8753L25.2835 12.5619C25.4991 14.7519 25.7065 16.1538 25.9055 16.7675C26.1046 17.3812 26.4809 17.6638 27.0343 17.6153ZM33.0288 17.7456C33.3897 17.714 33.6899 17.542 33.9293 17.2298C34.1729 16.9657 34.28 16.665 34.2505 16.3278C34.2442 16.2555 34.2248 16.1723 34.1923 16.078C34.0582 15.6528 33.7923 15.3848 33.3947 15.274C32.9228 15.1454 32.5618 14.8979 32.3116 14.5314C32.1095 14.1608 31.9454 13.5319 31.8194 12.6448C31.6693 11.7598 31.4896 10.2584 31.2803 8.14064C30.9237 4.3366 30.6004 2.30164 30.3105 2.03575C30.0184 1.74577 29.728 1.61342 29.4393 1.63871C29.1746 1.6619 28.9608 1.85054 28.7978 2.20466C28.5993 2.70752 28.614 4.81807 28.8419 8.53628L29.0787 11.2464C29.2619 13.3421 29.4467 14.6246 29.6331 15.0938C30.093 16.1944 30.8043 16.9816 31.767 17.4556C32.2473 17.6805 32.6679 17.7772 33.0288 17.7456ZM40.5157 17.8908C41.021 17.8466 41.4729 17.7463 41.8714 17.59C42.34 17.4033 42.7991 17.1082 43.2487 16.7048C43.6659 16.207 43.9722 15.8282 44.1677 15.5683C44.8817 16.5253 45.5101 16.9193 46.053 16.7504C46.6221 16.6035 46.8782 16.2048 46.8213 15.5544C46.7855 15.1448 46.632 14.6364 46.3607 14.0291C46.011 13.3557 45.6499 12.1373 45.2776 10.3736C44.9074 8.63404 44.6602 7.05361 44.536 5.63233C44.4773 3.57418 44.1607 2.16976 43.5859 1.41907C43.2782 1.22755 42.991 1.13134 42.7242 1.13043C42.4836 1.15151 42.2515 1.26894 42.0277 1.48274C41.782 1.72272 41.6508 2.0255 41.6343 2.39106C41.6114 2.68435 41.6042 2.87917 41.6126 2.97553C41.597 3.07399 41.606 3.31594 41.6397 3.70137C41.6869 3.96425 41.7189 4.19205 41.7358 4.38477C41.7307 4.60368 41.7658 4.86761 41.8413 5.17656C41.8927 5.48761 41.917 5.76464 41.9139 6.00765C41.9329 6.22445 41.9618 6.41612 42.0006 6.58263C41.1804 6.6302 40.5527 6.66091 40.1175 6.67476C38.8119 6.7163 37.8674 7.00536 37.2839 7.54195C36.6303 8.10895 36.1437 8.78269 35.824 9.56319C35.5064 10.3678 35.3814 11.4346 35.4491 12.7638C35.4439 12.9827 35.4509 13.2005 35.4698 13.4174C35.5266 14.0678 35.6373 14.6407 35.8018 15.136C36.0051 15.7979 36.2811 16.3198 36.6296 16.702C37.0588 17.1741 37.4984 17.4876 37.9483 17.6424C38.4202 17.771 39.1557 17.8643 40.1548 17.9224L40.5157 17.8908ZM40.177 15.2625C39.453 15.3017 38.8786 15.1092 38.4536 14.6852C38.0308 14.2854 37.792 13.7723 37.7372 13.1459L37.7309 13.0737C37.6338 11.4073 37.946 10.2633 38.6675 9.64181C39.0471 9.26873 39.5366 9.0438 40.136 8.96702L40.2803 8.95438C40.8097 8.90801 41.2455 9.03975 41.5877 9.34961C41.9938 9.55678 42.3026 10.0395 42.5144 10.7977C42.5553 10.9883 42.5841 11.18 42.601 11.3727C42.641 11.8304 42.6297 12.2562 42.5671 12.65C42.4952 13.2146 42.3997 13.6478 42.2806 13.9495C42.1218 14.3518 41.8693 14.6531 41.5232 14.8533C41.1791 15.0776 40.7304 15.214 40.177 15.2625ZM7.29667 38.9696C9.41401 38.7842 10.4513 37.8923 10.4086 36.2939C10.4201 36.1473 10.4205 36.0137 10.41 35.8933C10.3805 35.556 10.3082 35.2832 10.193 35.0748C10.0475 34.7963 9.72294 34.4121 9.21947 33.9221C8.32563 33.1266 7.45855 32.4986 6.61823 32.0382C5.69732 31.4877 5.21791 30.9957 5.18002 30.5621C5.13371 30.0321 5.36259 29.5994 5.86667 29.2639C6.34668 28.9306 6.95286 28.7926 7.68521 28.8498C8.41756 28.907 8.85637 28.7957 9.00164 28.516C9.1469 28.2363 8.97879 27.8383 8.49728 27.3222C8.04614 26.8763 7.42252 26.676 6.62641 26.7215L6.44596 26.7373C5.70008 26.8026 5.01915 27.0564 4.4032 27.4988C3.46933 28.1874 2.97081 29.1414 2.90764 30.3606C2.86853 31.5777 3.28748 32.4877 4.16448 33.0905C6.74527 34.8792 8.04514 35.882 8.06409 36.0988C8.08935 36.3878 7.85039 36.5666 7.34722 36.6349C6.84405 36.7033 6.14885 36.6549 5.26161 36.4899C4.1055 36.2999 3.45375 36.3327 3.30638 36.5883C3.16111 36.8681 3.11103 37.1273 3.15614 37.3661C3.18982 37.7516 3.45102 38.1049 3.93975 38.4262C4.73195 38.8909 5.81483 39.0752 7.18839 38.9791L7.29667 38.9696ZM16.4636 37.9482C16.7042 37.9271 16.9548 37.8809 17.2152 37.8095C17.7581 37.6406 18.2381 37.3073 18.6553 36.8095C19.0745 36.3359 19.2312 35.9095 19.1254 35.5304C19.0866 35.3639 19.0159 35.2487 18.9133 35.1849C18.8348 35.1189 18.6753 35.0965 18.4347 35.1176C18.216 35.1124 17.8912 35.1409 17.4602 35.2029C16.7667 35.3122 16.3085 35.3402 16.0856 35.2869C15.8868 35.2315 15.6743 35.0195 15.4481 34.6509C14.9287 33.7012 14.5453 32.6425 14.2978 31.4747C15.1315 31.3046 15.7638 31.1885 16.1948 31.1265C17.243 30.9133 17.96 30.6563 18.3459 30.3555C18.5958 30.1637 18.7113 29.9594 18.6923 29.7426C18.6797 29.598 18.6069 29.4588 18.474 29.3248C18.4373 29.1823 18.2955 29.0855 18.0486 29.0343C17.8236 28.957 17.5176 28.9231 17.1305 28.9327C16.7413 28.9183 16.3652 28.9148 16.0022 28.9223C15.6151 28.9319 15.205 28.9557 14.772 28.9937C14.3368 29.0075 14.0219 29.0108 13.8273 29.0036C13.953 25.4486 13.6189 23.7058 12.8249 23.7754C12.6805 23.788 12.5074 23.8882 12.3056 24.0758C11.764 24.5359 11.4969 25.9186 11.5044 28.224C11.5173 28.9268 11.5511 29.5913 11.6059 30.2177C11.7343 31.6871 11.9923 32.9753 12.38 34.0822C12.9321 35.6845 13.6096 36.7782 14.4123 37.3632C15.0099 37.8207 15.6937 38.0156 16.4636 37.9482ZM22.8516 37.1702C23.0441 37.1533 23.1973 37.1035 23.3113 37.0207C23.4932 36.8834 23.4686 35.7689 23.2373 33.6774C22.9703 31.1763 23.1007 29.4778 23.6285 28.582C24.1825 27.7081 25.2144 27.4478 26.7242 27.8011C28.3083 28.1721 29.0667 27.9721 28.9993 27.2013C28.9341 26.4545 28.1957 25.9123 26.7843 25.5748C26.19 25.4326 25.6402 25.3837 25.1349 25.4279C24.5093 25.4827 23.9325 25.6789 23.4043 26.0165C22.826 26.3341 22.449 26.5978 22.2733 26.8073C22.1196 26.9907 21.8617 26.9526 21.4996 26.693C21.0873 26.4136 20.73 26.3478 20.4277 26.4957C20.2196 26.611 20.1146 26.9357 20.1128 27.4699L20.1665 28.0842C20.2296 28.8069 20.3657 29.948 20.5747 31.5075C20.9645 34.5804 21.2342 36.2802 21.384 36.6069C21.5034 36.8635 21.797 37.032 22.2646 37.1124C22.4875 37.1657 22.6831 37.1849 22.8516 37.1702ZM35.767 35.3471C36.2964 35.3007 36.8205 35.1941 37.3393 35.0273C38.3507 34.6717 39.1408 34.1413 39.7096 33.4361C40.4738 32.471 40.8477 31.2003 40.8311 29.6239C40.8362 29.405 40.8304 29.1992 40.8135 29.0065C40.702 27.7297 40.3065 26.672 39.6271 25.8334C38.6776 24.6786 37.4245 24.0723 35.8678 24.0145C35.4786 24 35.1517 24.0044 34.887 24.0276C34.6705 24.0465 34.5031 24.0733 34.3849 24.1079C34.0543 24.2097 33.6423 24.4886 33.1488 24.9444C31.8092 25.9842 30.953 27.285 30.5804 28.8469C30.4008 29.5666 30.3395 30.2516 30.3963 30.902C30.4856 31.6467 30.7052 32.3557 31.0549 33.029C31.7701 34.2772 32.8664 35.0307 34.3437 35.2897C34.8114 35.3701 35.2858 35.3892 35.767 35.3471ZM35.546 32.8177C34.752 32.8872 34.163 32.8053 33.7789 32.5719C33.3927 32.3145 33.11 31.8538 32.9308 31.1898C32.8878 30.9751 32.8568 30.7593 32.8379 30.5425C32.7537 29.579 33.0732 28.5193 33.7966 27.3636C34.1352 26.7999 34.6252 26.4415 35.2664 26.2882C35.3846 26.2536 35.5038 26.231 35.6241 26.2205C36.1054 26.1783 36.5762 26.2948 37.0366 26.5701C37.5473 26.8652 37.9336 27.4018 38.1956 28.1799C38.3255 28.5569 38.4073 28.9381 38.441 29.3235C38.4747 29.709 38.4592 30.0866 38.3945 30.4563C38.2914 31.2179 38.0128 31.7763 37.559 32.1316C37.1073 32.511 36.4363 32.7397 35.546 32.8177ZM52.0178 34.6518C52.523 34.6076 52.7844 34.2691 52.8019 33.6365L52.7671 33.239C52.704 32.5163 52.4947 31.3695 52.1392 29.7986C51.7386 27.9888 51.3341 26.6892 50.9257 25.8997C50.5413 25.108 50.0011 24.4757 49.3052 24.0026C48.7118 23.5934 48.0662 23.4193 47.3685 23.4804C46.7429 23.5352 46.0719 23.7639 45.3555 24.1665C43.2282 25.3481 42.3109 27.6131 42.6035 30.9615C42.6308 31.2747 42.6713 31.5988 42.7248 31.934C42.8929 33.3029 43.1204 34.2418 43.4073 34.7507C43.6964 35.2836 44.0741 35.4447 44.5406 35.234C44.8429 35.0861 44.9235 34.2052 44.7824 32.5912C44.5214 29.6041 44.8703 27.6316 45.8291 26.6738C46.9197 25.5587 47.846 25.4776 48.6082 26.4304C48.8154 26.5821 49.222 27.9058 49.828 30.4015C50.4559 32.871 50.8385 34.1968 50.9756 34.379C51.1892 34.603 51.5366 34.694 52.0178 34.6518ZM58.8829 40.1675C61.4574 39.942 63.136 38.8968 63.9186 37.032C64.2425 36.2997 64.3559 35.1004 64.2588 33.434L64.2051 32.8197C64.083 31.4225 63.8501 30.1442 63.5063 28.9849C63.1668 27.8738 62.8582 26.9784 62.5806 26.2988C62.2233 25.262 61.6982 24.3856 61.0053 23.6695C60.3102 22.9294 59.6666 22.5003 59.0744 22.3822C58.5304 22.26 58.0057 22.221 57.5004 22.2652C56.6583 22.339 55.9094 22.6473 55.2537 23.1902C54.2143 24.0581 53.5281 25.2226 53.1951 26.684C53.0908 27.1543 53.0586 27.6183 53.0986 28.076C53.1575 28.7505 53.3729 29.4113 53.7446 30.0584C54.3708 31.1202 55.206 31.7995 56.2502 32.0964C57.3206 32.4153 58.476 32.1806 59.7163 31.3923C60.2444 31.0548 60.6335 30.7901 60.8834 30.5983C61.1703 31.1072 61.4082 31.8874 61.5971 32.9389C61.7619 33.9925 61.6975 34.9206 61.404 35.723C61.1501 36.4249 60.791 36.8933 60.3266 37.1282C59.8622 37.3631 59.2639 37.4519 58.5315 37.3947C58.0199 37.3667 57.3252 37.1848 56.4473 36.849C55.6019 36.6075 55.1402 37.0121 55.0623 38.0627C55.0704 39.5427 56.3439 40.2443 58.8829 40.1675ZM57.6519 29.8254C57.6038 29.8296 57.5546 29.8218 57.5044 29.8019C57.1414 29.8095 56.8584 29.7614 56.6553 29.6578C56.3498 29.4904 56.1111 29.2564 55.9394 28.9559C55.7415 28.6334 55.6247 28.2674 55.5889 27.8579C55.5089 26.9425 55.7936 26.1772 56.4429 25.562C56.8904 25.1344 57.2784 24.8577 57.6068 24.7319C57.7229 24.6731 57.8411 24.6385 57.9614 24.628C58.1539 24.6111 58.3506 24.6424 58.5515 24.7219C58.8309 24.8674 59.1031 25.2076 59.3681 25.7427C59.6153 26.3522 59.7589 26.8858 59.7989 27.3435C59.8136 27.5121 59.8153 27.6697 59.8039 27.8164C59.7518 28.3307 59.4068 28.8221 58.7689 29.2907C58.359 29.5936 57.9866 29.7718 57.6519 29.8254ZM70.9134 32.3777C71.178 32.3545 71.3695 32.3256 71.4877 32.291C71.7701 32.1934 72.088 31.9471 72.4414 31.5521C72.8366 31.0805 73.0247 30.7363 73.0058 30.5195C72.9763 30.1823 72.1142 30.0272 70.4194 30.0543C69.1138 30.0958 68.2339 30.0151 67.7798 29.8122C67.3016 29.6113 67.0001 29.2129 66.8753 28.617C66.7977 28.284 66.8159 28.076 66.9298 27.9932C67.0438 27.9104 67.4508 27.8505 68.1506 27.8135C69.9898 27.7738 71.43 27.0529 72.4712 25.6509C73.1037 24.843 73.3873 24.0657 73.3221 23.3189C73.2989 23.0539 73.2266 22.7811 73.1051 22.5004C72.7836 21.8732 71.8555 21.5176 70.3207 21.4336C69.9315 21.4191 69.5564 21.4277 69.1955 21.4593C68.209 21.5457 67.3969 21.8232 66.7589 22.2917C66.167 22.7319 65.6595 23.4439 65.2363 24.4277C64.8131 25.4114 64.5835 26.3904 64.5474 27.3645C64.5287 27.7059 64.532 28.0212 64.5573 28.3103C64.8015 31.1047 66.497 32.4733 69.6438 32.4161C70.1533 32.42 70.5765 32.4072 70.9134 32.3777ZM68.1182 25.7773C67.7813 25.8068 67.5475 25.7666 67.4167 25.6567C67.3382 25.5908 67.2947 25.5096 67.2863 25.4133C67.2779 25.3169 67.3055 25.2174 67.3693 25.1147C67.4686 24.8633 67.675 24.5903 67.9887 24.2958C68.4384 23.8923 69.0241 23.659 69.7459 23.5957C70.4677 23.5325 70.8444 23.6816 70.876 24.0429C70.8992 24.3079 70.5776 24.6516 69.9115 25.0741C69.2693 25.4944 68.6716 25.7288 68.1182 25.7773ZM78.7061 32.2777C78.8986 32.2608 79.0519 32.211 79.1659 32.1282C79.3478 31.9909 79.3232 30.8765 79.0919 28.7849C78.8249 26.2838 78.9553 24.5853 79.4831 23.6895C80.0371 22.8157 81.069 22.5554 82.5788 22.9086C84.1629 23.2796 84.9213 23.0796 84.8539 22.3088C84.7887 21.562 84.0503 21.0198 82.6388 20.6823C82.0445 20.5401 81.4948 20.4912 80.9895 20.5354C80.3639 20.5902 79.787 20.7864 79.2589 21.124C78.6806 21.4416 78.3035 21.7053 78.1279 21.9148C77.9742 22.0982 77.7163 22.0601 77.3542 21.8006C76.9419 21.5211 76.5846 21.4553 76.2823 21.6032C76.0742 21.7185 75.9692 22.0432 75.9674 22.5774L76.0211 23.1917C76.0842 23.9144 76.2203 25.0555 76.4293 26.615C76.8191 29.6879 77.0888 31.3877 77.2386 31.7144C77.358 31.971 77.6515 32.1395 78.1192 32.2199C78.3421 32.2732 78.5377 32.2925 78.7061 32.2777ZM9.2914 57.2188C9.532 57.1977 9.78253 57.1515 10.043 57.0801C10.5859 56.9112 11.0659 56.5779 11.483 56.0801C11.9023 55.6065 12.059 55.1801 11.9531 54.801C11.9143 54.6345 11.8437 54.5193 11.7411 54.4555C11.6626 54.3895 11.5031 54.3671 11.2624 54.3882C11.0438 54.383 10.719 54.4115 10.288 54.4735C9.59444 54.5828 9.13623 54.6108 8.91337 54.5575C8.71457 54.5021 8.50209 54.2901 8.27592 53.9215C7.75652 52.9718 7.37306 51.9131 7.12555 50.7453C7.95926 50.5752 8.59161 50.4591 9.02259 50.3971C10.0707 50.1839 10.7878 49.9269 11.1736 49.6261C11.4236 49.4343 11.5391 49.23 11.5201 49.0132C11.5075 48.8687 11.4347 48.7294 11.3018 48.5954C11.2651 48.453 11.1233 48.3561 10.8763 48.305C10.6514 48.2276 10.3454 48.1937 9.95828 48.2033C9.5691 48.1889 9.193 48.1854 8.82998 48.1929C8.44291 48.2025 8.03282 48.2263 7.59973 48.2643C7.16453 48.2781 6.84963 48.2814 6.65504 48.2742C6.7808 44.7192 6.44668 42.9765 5.65267 43.046C5.50831 43.0587 5.33522 43.1588 5.13341 43.3464C4.59174 43.8065 4.32465 45.1892 4.33214 47.4946C4.34507 48.1974 4.3789 48.8619 4.43363 49.4883C4.56203 50.9577 4.82007 52.2459 5.20774 53.3528C5.75991 54.9551 6.43736 56.0488 7.24008 56.6339C7.83768 57.0913 8.52145 57.2862 9.2914 57.2188ZM19.2018 55.5497C19.4665 55.5265 19.6579 55.4976 19.7761 55.463C20.0585 55.3654 20.3765 55.1191 20.7298 54.724C21.1251 54.2525 21.3132 53.9083 21.2942 53.6915C21.2648 53.3542 20.4026 53.1992 18.7079 53.2262C17.4023 53.2678 16.5224 53.1871 16.0683 52.9841C15.5901 52.7833 15.2885 52.3849 15.1637 51.789C15.0861 51.4559 15.1043 51.248 15.2183 51.1652C15.3323 51.0824 15.7392 51.0225 16.4391 50.9854C18.2783 50.9457 19.7184 50.2248 20.7597 48.8228C21.3922 48.015 21.6758 47.2376 21.6106 46.4908C21.5874 46.2259 21.5151 45.953 21.3936 45.6724C21.0721 45.0452 20.1439 44.6895 18.6092 44.6055C18.22 44.5911 17.8449 44.5996 17.484 44.6312C16.4975 44.7177 15.6853 44.9951 15.0474 45.4637C14.4555 45.9039 13.948 46.6159 13.5248 47.5996C13.1016 48.5834 12.872 49.5623 12.8359 50.5364C12.8172 50.8779 12.8205 51.1932 12.8458 51.4822C13.09 54.2766 14.7855 55.6452 17.9323 55.5881C18.4418 55.592 18.865 55.5792 19.2018 55.5497ZM16.4067 48.9493C16.0698 48.9788 15.836 48.9386 15.7051 48.8287C15.6266 48.7627 15.5832 48.6816 15.5748 48.5852C15.5663 48.4889 15.594 48.3893 15.6578 48.2867C15.757 48.0352 15.9635 47.7623 16.2772 47.4678C16.7268 47.0643 17.3126 46.8309 18.0344 46.7677C18.7562 46.7045 19.1329 46.8535 19.1645 47.2149C19.1876 47.4798 18.8661 47.8236 18.1999 48.246C17.5578 48.6664 16.9601 48.9008 16.4067 48.9493ZM28.1125 56.5897C28.6178 56.5454 29.315 56.3387 30.204 55.9696C31.0952 55.6245 31.6066 55.3734 31.7383 55.2162C32.0981 54.8934 32.3981 54.4423 32.6384 53.863C32.9247 53.2553 33.0536 52.6493 33.025 52.045C33.0428 51.9706 33.0485 51.8973 33.0422 51.825C32.9895 51.2228 32.8228 50.4242 32.5419 49.4293C32.0649 47.5777 31.4998 46.2436 30.8466 45.427C30.1671 44.5883 29.1966 44.1636 27.9349 44.1527L27.3214 44.2065C26.8883 44.2444 26.5185 44.3132 26.212 44.4129C25.7633 44.5493 25.3742 44.814 25.0449 45.2069C24.6497 45.6785 24.4109 46.1363 24.3285 46.5805C24.222 47.0267 24.2646 47.375 24.4561 47.6252C24.8414 48.1498 25.3701 47.9578 26.0424 47.0493C26.4595 46.5516 26.9317 46.2675 27.4589 46.197C28.0123 46.1486 28.4644 46.3274 28.8151 46.7336C29.0632 47.076 29.2176 47.3174 29.2784 47.4577C29.3391 47.598 29.3114 47.6975 29.1953 47.7562C29.0793 47.815 28.8528 47.8591 28.5159 47.8886C27.361 47.9897 26.3235 48.6025 25.4035 49.7269C24.5075 50.8491 24.1111 52.0005 24.2143 53.1808C24.3069 54.2408 24.7206 55.0905 25.4553 55.7301C26.1922 56.3938 27.0779 56.6803 28.1125 56.5897ZM27.8256 54.1389C27.6572 54.1536 27.5107 54.1422 27.3862 54.1046C26.9865 53.9697 26.7331 53.5671 26.6261 52.8968L26.6134 52.7522C26.5882 52.4632 26.6152 52.218 26.6946 52.0169C26.818 51.7634 27.0673 51.426 27.4426 51.0047C28.0637 50.3434 28.5908 49.9939 29.0239 49.9559C29.4089 49.9222 29.7197 50.1498 29.9564 50.6389C30.1868 51.0556 30.3293 51.5772 30.384 52.2035C30.4156 52.5648 30.3546 52.8372 30.2009 53.0206C30.0472 53.2039 29.6911 53.4293 29.1326 53.6967C28.5981 53.962 28.1625 54.1094 27.8256 54.1389ZM42.3661 53.8483C42.9195 53.7999 43.2756 53.5745 43.4344 53.1722C43.5691 52.772 43.5818 51.9456 43.4723 50.6929C43.3586 49.3921 43.3701 48.2745 43.5066 47.3401C43.6191 46.4079 43.8385 45.8667 44.1649 45.7168C44.419 45.5732 44.8077 45.7212 45.3311 46.1608C45.8523 46.5764 46.2344 47.0648 46.4774 47.6261C46.6293 47.9769 46.907 48.9356 47.3106 50.5024C47.8829 52.6126 48.6497 53.48 49.6109 53.1045C50.0094 52.9482 50.2321 52.7224 50.2791 52.427C50.2968 52.3526 50.2983 52.2311 50.2836 52.0625C50.2436 51.6048 50.0627 50.7832 49.7409 49.5977C49.3373 48.031 48.9465 46.8879 48.5684 46.1685C48.2689 45.5151 47.7026 44.8608 46.8695 44.2055C46.0604 43.5482 45.3739 43.1835 44.81 43.1115C44.2723 43.0615 43.7001 43.1723 43.0934 43.4439C42.5109 43.7134 42.1051 44.0645 41.8763 44.4972C41.6651 44.8556 41.5287 45.0981 41.4671 45.2249C40.9176 44.7633 40.511 44.4105 40.2472 44.1666C39.7458 43.7008 39.3445 43.4082 39.0431 43.289C38.7439 43.1938 38.3175 43.1705 37.7641 43.2189C37.2107 43.2674 36.807 43.3635 36.5528 43.5071C36.2767 43.6769 35.9202 44.0359 35.4832 44.5839C34.2819 46.097 33.775 47.9255 33.9623 50.0695C33.9939 50.4308 34.0516 50.8142 34.1355 51.2195C34.3349 52.3914 34.5608 53.1727 34.8131 53.5632C35.0676 53.9779 35.4082 54.1301 35.835 54.0199C36.1216 53.9705 36.2894 53.8102 36.3384 53.5389C36.3854 53.2435 36.4033 52.4773 36.3921 51.2403C36.3431 49.5697 36.4789 48.2106 36.7996 47.163C37.2152 45.8158 37.758 45.3677 38.4277 45.8188C38.6873 46.0145 39.0643 46.7219 39.5587 47.9408C40.0793 49.1817 40.4722 50.3489 40.7375 51.4422C40.942 52.3953 41.1563 53.044 41.3804 53.3885C41.6285 53.7309 41.9571 53.8842 42.3661 53.8483ZM55.8346 53.3604C57.952 53.1749 58.9893 52.283 58.9466 50.6847C58.958 50.538 58.9585 50.4045 58.948 50.284C58.9185 49.9468 58.8462 49.674 58.731 49.4656C58.5854 49.1871 58.2609 48.8028 57.7574 48.3129C56.8636 47.5173 55.9965 46.8893 55.1562 46.4289C54.2353 45.8785 53.7559 45.3864 53.718 44.9528C53.6717 44.4229 53.9006 43.9902 54.4046 43.6547C54.8847 43.3214 55.4908 43.1833 56.2232 43.2405C56.9555 43.2978 57.3943 43.1865 57.5396 42.9068C57.6849 42.627 57.5168 42.2291 57.0352 41.713C56.5841 41.267 55.9605 41.0668 55.1644 41.1122L54.9839 41.128C54.238 41.1934 53.5571 41.4472 52.9412 41.8895C52.0073 42.5782 51.5088 43.5321 51.4456 44.7514C51.4065 45.9685 51.8254 46.8785 52.7024 47.4813C55.2832 49.27 56.5831 50.2727 56.6021 50.4895C56.6273 50.7786 56.3884 50.9573 55.8852 51.0257C55.382 51.094 54.6868 51.0457 53.7996 50.8807C52.6435 50.6906 51.9917 50.7234 51.8443 50.9791C51.6991 51.2588 51.649 51.5181 51.6941 51.7569C51.7278 52.1423 51.989 52.4957 52.4777 52.817C53.2699 53.2816 54.3528 53.4659 55.7264 53.3699L55.8346 53.3604Z" fill="#002E8C" stroke="#002E8C" stroke-width="0.6"/>
</svg>
