<svg width="38" height="37" viewBox="0 0 38 37" fill="none" xmlns="http://www.w3.org/2000/svg">
<path d="M3.17747 24.2181C3.79478 24.1096 4.40288 23.9626 5.01712 23.8435C7.73481 23.3153 10.4809 23.1645 13.1932 23.2919C13.3251 23.4155 13.4324 23.472 13.4631 23.5519C13.993 24.9182 14.5052 26.2912 15.0405 27.656C15.3342 28.4043 15.6632 29.1421 15.9745 29.8844C16.542 31.2409 17.1593 32.5891 17.3824 34.0308C17.5481 35.1016 18.4545 35.8108 18.8977 36.7415C18.933 36.8146 19.0572 36.8568 19.1462 36.9042C19.5342 37.1107 20.0411 36.9706 20.1921 36.6058C20.2458 36.477 20.255 36.333 20.298 36.1996C21.1929 33.4136 22.179 30.6576 23.5011 28.0049C23.7986 27.4081 24.0961 26.812 24.3584 26.2023C24.7487 25.2972 24.9481 25.1435 26.093 25.1284C28.0362 25.1036 29.9724 25.0531 31.8681 24.5949C32.6219 24.4125 33.4033 24.3032 34.1793 24.2038C34.641 24.1457 35.1156 24.1578 35.5842 24.1631C35.9461 24.1676 36.3073 24.2098 36.7291 24.2407C36.8671 24.0455 36.943 23.9739 36.9729 23.8895C37.3771 22.7591 37.2083 22.319 36.1309 21.64C35.8303 21.4501 35.5466 21.2413 35.2475 21.0529C33.151 19.7341 31.2109 18.2217 28.9656 17.0852C27.8782 16.5351 27.803 16.1786 28.2225 15.1213C28.9541 13.2788 29.6611 11.4272 30.3781 9.58009C30.4287 9.4467 30.4847 9.31557 30.5253 9.18068C31.1273 7.1987 31.7362 5.21898 32.3174 3.23248C32.4202 2.88131 32.4953 2.48642 32.4187 2.14051C32.2338 1.31682 31.503 0.90686 30.6749 0.685303C30.0215 0.511219 29.8091 1.06361 29.4686 1.40198C28.9801 1.8873 28.4403 2.33042 27.9457 2.80971C27.4534 3.28599 27.063 3.87154 26.494 4.25211C25.8468 4.68618 25.3676 5.21371 24.8921 5.77137C24.5754 6.14215 24.2702 6.55286 23.8569 6.81888C23.1192 7.29214 22.567 7.90256 21.9942 8.5062C21.8247 8.68405 21.6522 8.86266 21.4597 9.01941C20.9007 9.47458 20.2497 9.53788 19.5587 9.31406C19.3141 9.23493 19.0764 9.1234 18.8578 8.99604C16.6217 7.69306 14.3526 6.43078 12.2975 4.89795C11.4133 4.2393 10.5599 3.54673 9.68105 2.8813C9.24165 2.54972 8.83676 2.53691 8.38662 2.79841C8.04154 2.99887 7.96563 3.25132 8.19951 3.79392C8.46024 4.40208 8.79995 4.9816 9.06835 5.58749C9.62507 6.84752 10.1772 8.11056 10.6925 9.3834C11.2446 10.7474 11.6687 12.1423 11.885 13.5855C11.9509 14.0256 11.921 14.4212 11.5307 14.746C10.3421 15.7348 9.20484 16.7755 7.95643 17.6987C6.87518 18.4982 5.67431 19.1697 4.51714 19.8849C3.53329 20.4938 2.5801 21.1434 1.50039 21.6272C0.865448 21.9121 0.686005 22.4449 0.932159 23.0485C1.24656 23.8217 2.29024 24.3748 3.17747 24.2181Z" fill="#F5A9AB"/>
</svg>
